Coordinates
version=1
nRows=5
nColumns=40
inDegrees=yes

Units are S.I. units (second, meters, Newtons, ...)
If the header above contains a line with 'inDegrees', this indicates whether rotational values are in degrees (yes) or radians (no).

endheader
time	pelvis_tilt	pelvis_list	pelvis_rotation	pelvis_tx	pelvis_ty	pelvis_tz	hip_flexion_r	hip_adduction_r	hip_rotation_r	knee_angle_r	knee_angle_r_beta	ankle_angle_r	subtalar_angle_r	mtp_angle_r	hip_flexion_l	hip_adduction_l	hip_rotation_l	knee_angle_l	knee_angle_l_beta	ankle_angle_l	subtalar_angle_l	mtp_angle_l	lumbar_extension	lumbar_bending	lumbar_rotation	arm_flex_r	arm_add_r	arm_rot_r	elbow_flex_r	pro_sup_r	wrist_flex_r	wrist_dev_r	arm_flex_l	arm_add_l	arm_rot_l	elbow_flex_l	pro_sup_l	wrist_flex_l	wrist_dev_l
      1.00000000	      7.01183274	      5.06548972	      1.83642819	     -0.32850312	      1.03439516	     -0.77732562	      1.69621968	     -0.67246009	     -1.69406330	     13.39694009	      0.23382071	     -0.51798825	      0.00000000	      0.00000000	     13.68032810	      6.94278069	     11.86550460	     10.05044294	      0.17541332	     -5.93046215	      0.00000000	      0.00000000	    -20.87573786	     -5.37816936	     -3.34447791	     78.69315045	    -14.61993798	     17.61444578	     47.64856721	     87.58161089	      0.00000000	      0.00000000	     83.25958687	    -10.03650606	     22.14600806	     42.18928042	     86.59887422	      0.00000000	      0.00000000
      1.00500000	      7.08039408	      5.05392858	      1.82429155	     -0.32857720	      1.03440251	     -0.77697434	      1.61831457	     -0.62738629	     -1.60336444	     13.35787225	      0.23313885	     -0.59998235	      0.00000000	      0.00000000	     13.68898870	      6.96147052	     11.85562826	      9.62037157	      0.16790716	     -6.02092444	      0.00000000	      0.00000000	    -20.97919477	     -5.42669926	     -3.36106505	     78.64887106	    -14.57130189	     17.36054664	     47.71741441	     87.63982549	      0.00000000	      0.00000000	     83.17630548	     -9.93289123	     21.58036132	     42.27841294	     86.67418566	      0.00000000	      0.00000000
      1.01000000	      7.03320467	      5.05573505	      1.85514005	     -0.32873339	      1.03412984	     -0.77669952	      1.80136271	     -0.62714818	     -1.73514747	     13.61703470	      0.23766209	     -0.47667668	      0.00000000	      0.00000000	     13.85212609	      7.01535011	     11.92827198	      9.22669183	      0.16103615	     -6.12843762	      0.00000000	      0.00000000	    -20.95265179	     -5.49068054	     -3.42711299	     78.69951005	    -14.59685343	     17.50496454	     47.65242182	     87.57449023	      0.00000000	      0.00000000	     83.23107234	     -9.99226006	     21.69854006	     42.24206840	     86.79494057	      0.00000000	      0.00000000
      1.01500000	      7.03877588	      5.06605770	      1.81314427	     -0.32885326	      1.03398125	     -0.77627734	      1.87149783	     -0.60156837	     -1.63107738	     13.74543353	      0.23990307	     -0.35253384	      0.00000000	      0.00000000	     13.97542721	      7.06291672	     11.84760538	      8.89436235	      0.15523591	     -6.16937148	      0.00000000	      0.00000000	    -20.98269486	     -5.59112059	     -3.42241458	     78.70071878	    -14.58846228	     17.48352066	     47.62754017	     87.50949159	      0.00000000	      0.00000000	     83.24609132	    -10.01333080	     21.66045503	     42.25453534	     86.90901498	      0.00000000	      0.00000000
      1.02000000	      7.06014764	      5.05500440	      1.80026370	     -0.32893982	      1.03385144	     -0.77588120	      1.85853969	     -0.54342646	     -1.51018157	     13.74538270	      0.23990219	     -0.31336768	      0.00000000	      0.00000000	     14.07001027	      7.08553517	     11.78334556	      8.54563934	      0.14914954	     -6.16778967	      0.00000000	      0.00000000	    -21.02191809	     -5.65948100	     -3.44462929	     78.70033876	    -14.55881961	     17.40866600	     47.60781573	     87.52449664	      0.00000000	      0.00000000	     83.27691431	    -10.05169463	     21.68986937	     42.27104302	     86.87267019	      0.00000000	      0.00000000
